<?xml version="1.0" encoding="UTF-8" standalone="no"?>
<!-- Created with Inkscape (http://www.inkscape.org/) -->

<svg
   width="512"
   height="512"
   viewBox="0 0 512 512"
   version="1.1"
   id="svg1"
   inkscape:version="1.3.2 (091e20e, 2023-11-25, custom)"
   sodipodi:docname="znay.svg"
   xmlns:inkscape="http://www.inkscape.org/namespaces/inkscape"
   xmlns:sodipodi="http://sodipodi.sourceforge.net/DTD/sodipodi-0.dtd"
   xmlns="http://www.w3.org/2000/svg"
   xmlns:svg="http://www.w3.org/2000/svg">
  <sodipodi:namedview
     id="namedview1"
     pagecolor="#ffffff"
     bordercolor="#000000"
     borderopacity="0.25"
     inkscape:showpageshadow="2"
     inkscape:pageopacity="0.0"
     inkscape:pagecheckerboard="0"
     inkscape:deskcolor="#d1d1d1"
     inkscape:document-units="px"
     inkscape:zoom="2.2910156"
     inkscape:cx="274.33248"
     inkscape:cy="242.90537"
     inkscape:window-width="2560"
     inkscape:window-height="1369"
     inkscape:window-x="-8"
     inkscape:window-y="-8"
     inkscape:window-maximized="1"
     inkscape:current-layer="layer2" />
  <defs
     id="defs1" />
  <g
     inkscape:groupmode="layer"
     id="layer2"
     inkscape:label="Слой 2"
     style="fill:#ffffff;fill-opacity:1">
    <path
       style="fill:#ffffff;fill-opacity:1"
       id="path8"
       d="m 22.776511,174.49523 c 3.975634,-10.00748 8.855162,-19.66948 15.539167,-28.17979 2.991134,-3.80841 6.373173,-7.29289 9.559759,-10.93934 4.02536,-3.67758 7.821408,-7.62306 12.076081,-11.03273 9.459503,-7.5808 20.462446,-14.42761 31.420442,-19.57756 5.904275,-2.77485 11.95809,-5.287845 18.18262,-7.241178 16.45083,-5.162475 21.15857,-4.660331 38.01542,-6.108517 15.18655,1.187097 19.53244,0.38017 33.71943,5.859285 7.86941,3.03922 15.65838,7.03076 20.74218,14.03725 7.65439,10.54928 6.63051,13.07834 9.02551,25.79302 -0.58093,5.54167 -0.49411,11.19468 -1.74279,16.625 -3.02724,13.16503 -9.8823,27.23198 -16.59514,38.73777 -8.08842,13.86354 -18.90695,28.52406 -29.00858,40.91684 -5.33234,6.54176 -11.06799,12.74416 -16.60199,19.11624 -14.23081,14.52606 -17.77885,18.94734 -33.1223,31.63091 -4.78472,3.95526 -9.70991,7.75476 -14.827476,11.26876 -5.901862,4.05254 -15.069776,9.82429 -22.668829,11.19203 -2.198918,0.39578 -4.452309,-0.3801 -6.678464,-0.57014 1.101005,-0.0372 2.692763,0.80551 3.303014,-0.11166 1.099981,-1.65319 0.471285,-3.94333 0.706927,-5.915 1.918459,-2.8072 3.445578,-5.92646 5.755376,-8.42159 7.312755,-7.89951 16.351971,-13.59316 26.068432,-18.09573 6.12574,-2.83864 12.64054,-4.74837 18.96081,-7.12255 7.89367,-1.07646 15.72426,-2.83101 23.68103,-3.22937 8.33425,-0.41726 16.7415,-0.24545 25.02158,0.79104 14.93695,1.86977 30.76802,6.66939 44.06608,13.86613 10.36046,5.60695 14.08165,12.3115 21.48363,21.43044 2.12465,4.9762 4.93906,9.71154 6.37395,14.92861 4.7337,17.21112 1.13047,34.79543 -7.04116,50.32799 -8.07955,15.35753 -14.27806,20.44021 -25.96558,33.23722 -6.87688,5.19808 -13.44173,10.83705 -20.63065,15.59426 -15.43425,10.21348 -31.96905,18.34629 -49.1231,25.21112 -15.01829,6.01013 -33.55763,11.76538 -49.42788,15.31277 -7.341049,1.6409 -14.815778,2.61285 -22.223668,3.91927 -15.247814,2.00874 -30.637225,2.63315 -45.996072,2.01608 -5.236222,-0.21037 -7.517533,-0.51059 -12.272323,-1.01624 0,0 2.084382,1.58335 2.084382,1.58335 v 0 c 2.185484,0.64123 4.329682,1.44513 6.556452,1.92367 18.073535,3.88408 36.758929,1.3924 54.844334,-0.85705 7.367339,-1.358 14.813812,-2.34082 22.102017,-4.074 14.266828,-3.39274 35.418388,-10.44022 48.778798,-15.8569 16.59129,-6.72656 34.459,-15.38298 49.55296,-25.07533 7.33361,-4.70916 14.06714,-10.2931 21.10071,-15.43966 11.5777,-12.77813 17.99309,-18.16238 25.99192,-33.48216 8.05662,-15.43048 11.96468,-33.55453 7.39808,-50.68883 -1.4076,-5.28144 -4.23834,-10.07653 -6.35751,-15.11479 -3.6742,-4.51145 -6.62262,-9.72738 -11.0226,-13.53437 -10.93402,-9.46043 -25.97659,-17.52134 -39.93833,-21.58341 -7.38979,-2.15 -15.01994,-3.5659 -22.6772,-4.33914 -20.27081,-2.04696 -28.87775,0.0699 -48.91232,2.42688 -6.51234,2.2666 -13.18048,4.12727 -19.53702,6.79981 -10.593824,4.45406 -19.556675,9.38996 -27.983333,17.14257 -0.800456,0.73642 -10.64912,10.12562 -8.169619,14.4458 1.884571,3.2836 5.955321,4.67639 8.932981,7.01459 2.044494,-0.0442 4.16159,0.40905 6.133481,-0.13276 7.339884,-2.01676 15.612645,-7.94029 21.29613,-12.25993 4.87787,-3.70734 9.57374,-7.6561 14.16527,-11.71267 14.967,-13.22319 18.26258,-17.33424 32.38502,-32.12332 5.49022,-6.40363 11.14358,-12.67092 16.47067,-19.21088 10.56762,-12.97365 20.72249,-26.39802 29.33357,-40.77894 6.69481,-11.18067 14.06916,-25.61438 17.34758,-38.45507 1.37585,-5.38881 1.42643,-11.03151 2.13964,-16.54726 -1.8557,-10.68216 -1.45513,-17.48785 -9.02227,-26.07863 -3.67712,-4.17454 -8.39738,-7.35967 -13.07177,-10.37596 -8.39664,-5.418179 -18.09423,-8.624724 -27.92563,-10.092303 -5.68868,-0.849178 -11.48298,-0.685787 -17.22447,-1.02868 -16.86023,1.451479 -21.56671,0.950054 -38.02047,6.11581 -6.22523,1.95445 -12.279733,4.468403 -18.184651,7.244253 -11.565381,5.43679 -21.392943,11.73244 -31.424123,19.58335 -4.327031,3.38655 -8.293558,7.21004 -12.440337,10.81506 -3.410373,3.51693 -6.979342,6.88672 -10.231121,10.55078 -5.613325,6.32503 -7.702298,9.60398 -11.890775,16.37288 -2.125147,3.4344 -4.221523,6.94161 -5.780712,10.67872 z" />
    <path
       style="fill:#ffffff;fill-opacity:1"
       id="path9"
       d="m 161.07937,11.095952 c -0.0692,0.768348 -0.21369,1.533615 -0.20747,2.305044 0.0844,10.468026 0.7359,-1.72731 0.6765,12.930566 -0.0215,5.315874 -0.24767,10.630137 -0.50897,15.939628 -1.07214,21.78516 -1.90379,28.957385 -3.83075,51.717063 -2.31215,26.273237 -3.92665,43.906777 -5.99613,70.498677 -0.98899,12.70805 -2.04592,25.41265 -2.79893,38.13686 -0.7754,13.10281 -1.30491,26.21975 -1.78584,39.33667 -0.46425,12.66223 -0.92289,25.32762 -1.04959,37.99772 -0.12953,12.95427 0.18733,25.90916 0.281,38.86374 0.71442,32.2688 1.83595,64.52868 3.68702,96.75324 0.58962,10.26459 1.87491,30.5838 2.99849,41.54482 0.48366,4.71826 1.21215,9.40821 1.81823,14.11231 0.43179,3.34281 0.86358,6.68562 1.29537,10.02843 0,0 0.2709,0.1343 0.2709,0.1343 v 0 c -0.29839,-3.27641 -0.59679,-6.55282 -0.89518,-9.82923 -0.32698,-4.56452 -0.60465,-9.13285 -0.98095,-13.69357 -2.19703,-26.62718 -1.41109,-11.83904 -3.52754,-41.80515 -2.28296,-32.32378 -3.87943,-64.70531 -4.39685,-97.10805 -0.16666,-33.04537 -0.6147,-43.97672 0.76779,-76.8599 1.06794,-25.40141 3.052,-51.6643 5.5436,-76.97176 1.19975,-12.18603 2.64636,-24.34672 4.06026,-36.50976 1.27595,-10.97628 2.6728,-21.93816 4.00919,-32.907236 1.02069,-9.388156 2.14704,-18.765424 3.06207,-28.164466 1.52435,-15.657925 2.33047,-24.124798 2.27712,-39.051699 -0.01,-2.715855 -0.25566,-5.426199 -0.44543,-8.135434 -0.11512,-1.643428 -0.25563,-3.286485 -0.46907,-4.920054 -0.11663,-0.892594 -0.34669,-1.766665 -0.52004,-2.649998 z" />
    <path
       style="fill:#ffffff;fill-opacity:1"
       id="path10"
       d="m 103.74643,273.38048 c 0.71395,-8.1e-4 1.43003,0.0527 2.14185,-0.002 4.23575,-0.32811 6.58883,-0.878 11.00784,-1.88412 14.16426,-3.22493 11.37509,-2.90458 28.96244,-7.94644 8.22274,-2.35727 16.46576,-4.64322 24.69864,-6.96483 39.30774,-10.47392 78.93703,-19.75457 118.82414,-27.74602 20.08098,-4.02326 27.68698,-5.27771 47.25125,-8.76168 15.4532,-2.86358 31.01063,-5.08029 46.58087,-7.18481 5.40628,-0.73073 10.59006,-1.26528 15.89463,-2.45449 1.3874,-0.31103 2.73242,-0.78764 4.09863,-1.18146 2.98577,-1.28625 2.39093,-0.9491 3.25131,-3.60261 0,0 -1.86886,-1.11155 -1.86886,-1.11155 v 0 c -0.28838,0.18795 -0.54048,0.44947 -0.86514,0.56386 -7.59646,2.67658 4.65773,-2.42062 -4.42533,1.48869 -1.28136,0.43724 -2.54811,0.91987 -3.84407,1.31172 -3.99684,1.2085 -10.36411,2.78826 -14.15406,3.64543 -14.85918,3.36067 -29.89199,5.86171 -44.91569,8.35183 -7.31056,1.30195 -14.63058,2.55193 -21.9317,3.90586 -18.42277,3.41633 -35.42589,6.79115 -53.79302,10.77821 -24.54368,5.32783 -36.63259,8.32261 -61.10352,14.25769 -9.90561,2.40246 -19.80383,4.83528 -29.70574,7.25292 -8.65248,2.03214 -17.28829,4.13658 -25.95744,6.0964 -6.7396,1.52361 -13.50693,2.92206 -20.26672,4.3534 -3.55593,0.75295 -7.11998,1.467 -10.68019,2.19941 -2.22661,0.45807 -4.46449,0.86422 -6.68029,1.37204 -2.28794,0.52435 -3.14342,0.83353 -5.03045,1.45545 z" />
    <path
       style="fill:#ffffff;fill-opacity:1"
       id="path11"
       d="m 294.63941,66.415165 c -0.55596,0.680281 -1.21464,1.288223 -1.6679,2.040844 -0.7494,1.24433 -1.34497,2.578157 -1.91778,3.913012 -2.3137,5.391783 -3.48851,9.248066 -5.13841,15.109053 -2.58317,9.17621 -4.6867,18.223466 -6.94754,27.500016 -3.37484,14.71695 -6.5945,28.57947 -9.80474,43.38273 -1.87892,8.66418 -3.93628,17.29541 -5.49486,26.0229 -1.90032,10.64109 -3.30888,21.3644 -4.87767,32.05939 -5.47309,37.31214 -4.22629,29.0486 -8.45944,66.45232 -0.99101,10.36316 -2.07457,20.71788 -2.97302,31.08948 -0.80937,9.34329 -1.57211,18.69211 -2.15021,28.05255 -0.52335,8.47397 -0.82083,16.96061 -1.15373,25.4442 -0.61839,15.75859 -0.88979,26.03054 -0.9707,41.53168 -0.0276,5.29654 0.0444,10.59313 0.0666,15.8897 0.57889,15.97639 0.36451,8.5195 0.68499,22.36945 0,0 0.2694,0.13726 0.2694,0.13726 v 0 c 0.31566,-13.45688 0.0852,-6.24373 0.74863,-21.63754 0.20668,-11.62645 0.36166,-23.25383 0.59013,-34.87987 0.14696,-7.47849 0.2537,-14.95843 0.50671,-22.43408 0.28733,-8.48984 0.69837,-16.97522 1.11422,-25.45973 1.61333,-32.91668 1.29295,-25.47863 4.02817,-59.70423 3.03329,-26.0937 4.26489,-40.30846 8.95687,-66.18129 6.08504,-33.55444 15.43579,-66.37073 24.18574,-99.28892 1.26268,-5.07163 2.54969,-10.13727 3.78806,-15.21489 1.75538,-7.197455 3.39687,-14.422361 5.15193,-21.61989 0.5314,-2.179267 1.08993,-4.351831 1.63489,-6.527747 0.41907,-1.420204 0.90366,-2.822699 1.25722,-4.260614 0.21844,-0.888399 0.30391,-1.804306 0.45586,-2.706459 z" />
    <path
       style="fill:#ffffff;fill-opacity:1"
       id="path12"
       d="m 225.11328,451.19513 c 0.17633,-0.95765 0.36186,-1.91365 0.52897,-2.87296 1.08386,-6.22189 1.19148,-7.64093 2.71394,-14.59563 2.18842,-9.99686 3.97646,-16.88257 7.20037,-26.89097 1.9177,-5.95336 4.10055,-11.81802 6.15082,-17.72704 7.52831,-18.82847 10.25159,-26.3901 19.19728,-45.36211 4.28616,-9.09008 8.84106,-18.0521 13.41672,-26.99995 14.67176,-28.69111 30.35132,-56.85412 45.87268,-85.08904 12.70079,-23.15683 25.21639,-46.42352 36.88257,-70.12275 2.93148,-5.95513 5.68255,-11.99776 8.59801,-17.96074 4.2403,-8.67266 8.64808,-17.26244 12.9521,-25.90365 2.47905,-4.34881 4.06305,-9.16354 6.47737,-13.54862 0.39403,-0.71567 2.06107,-1.45216 1.44018,-1.98313 -1.52113,-1.30082 -4.05197,-2.757176 -5.75643,-1.708 -1.58689,0.97681 -0.29714,3.7158 -0.51239,5.56675 -0.50785,4.36684 -1.10443,8.72289 -1.65665,13.08433 -2.55407,24.4167 -4.45765,48.90123 -6.01714,73.40027 -0.64402,10.11725 -1.27809,20.23616 -1.73988,30.36336 -1.07384,23.54926 -1.2038,38.47457 -1.65375,62.02229 -0.23465,22.39558 -0.5108,35.40779 -0.20442,57.6554 0.12822,9.31071 0.44989,18.61775 0.6671,27.9268 0.19647,8.42053 0.56566,16.83912 0.57394,25.26193 0.007,6.88737 -0.35251,13.77024 -0.52877,20.65535 0,0 0.26871,0.13863 0.26871,0.13863 v 0 c 0.51011,-6.71652 1.3496,-13.41613 1.53032,-20.14957 0.22479,-8.3748 -0.17189,-16.75489 -0.31495,-25.13148 -0.48925,-28.64655 -1.58427,-57.28819 -1.18694,-85.94462 0.26577,-10.27042 0.40042,-20.54507 0.7973,-30.81125 0.39751,-10.28244 0.97211,-20.5578 1.58566,-30.82961 2.04135,-34.17524 4.93363,-68.35801 10.84948,-102.10895 0.79211,-4.2339 1.5335,-8.4776 2.37631,-12.70169 0.35559,-1.78215 1.98437,-3.66608 1.21826,-5.31398 -1.022,-2.19835 -3.4375,-3.736595 -5.75566,-4.44606 -0.82186,-0.251526 -0.29648,1.69553 -0.51937,2.52561 -1.31309,4.89013 -3.04856,9.77805 -4.63988,14.55935 -3.67594,10.19438 -5.9791,17.0738 -10.51628,27.26982 -2.6985,6.06411 -5.66396,12.00654 -8.59493,17.96177 -11.66424,23.69978 -24.18292,46.96456 -36.88204,70.12181 -15.52156,28.23529 -31.20132,56.39866 -45.8733,85.09013 -4.57581,8.94812 -9.0201,17.96347 -13.41718,27.00076 -3.87669,7.96775 -7.78683,15.92308 -11.40313,24.01234 -3.07446,6.87719 -5.77529,13.91538 -8.66293,20.87307 -2.0635,5.90419 -4.25846,11.76407 -6.19051,17.71257 -3.07024,9.45288 -5.14347,17.28717 -7.36553,26.81526 -1.08654,4.65902 -2.19597,9.75549 -2.79778,14.56549 -0.12663,1.01208 -0.12922,2.03584 -0.19383,3.05377 z" />
    <path
       style="fill:#ffffff;fill-opacity:1"
       id="path13"
       d="m 209.7784,331.98455 c 1.50926,-0.51058 3.02615,-0.99917 4.5278,-1.53174 9.61534,-3.41013 9.34131,-3.64273 20.70554,-7.04601 12.6189,-3.77902 28.11487,-7.82513 40.75012,-10.63999 9.69182,-2.15913 19.45397,-3.98947 29.18096,-5.9842 36.33023,-6.3531 72.92002,-12.5502 109.90293,-12.94122 5.7748,-0.0611 11.54661,0.28927 17.31992,0.4339 0,0 -0.24417,-0.17833 -0.24417,-0.17833 v 0 c -5.77368,-0.14412 -11.54589,-0.49385 -17.32104,-0.43235 -36.98384,0.39382 -73.57449,6.59101 -109.90564,12.94503 -22.78333,4.22785 -31.96819,5.72362 -53.65232,10.458 -6.31125,1.37796 -12.6138,2.80481 -18.8738,4.39951 -6.4116,1.63331 -14.75853,3.81188 -20.97687,6.9367 -1.20831,0.6072 -2.19066,1.58615 -3.28598,2.37922 z" />
    <path
       style="fill:#ffffff;fill-opacity:1"
       id="path14"
       d="m 427.2156,74.767669 c -0.94174,1.59353 -1.16333,1.805195 -1.77413,4.003069 -2.03885,7.336474 -2.44332,11.392308 -4.24398,19.338601 -3.302,14.571751 -5.3971,21.640081 -9.45994,36.704491 -7.93126,27.95318 -15.94583,55.88253 -23.7194,83.88023 -6.82176,24.56959 -10.76932,38.65297 -16.86698,63.45883 -2.60035,10.57847 -4.98389,21.20907 -7.47584,31.8136 -6.33015,27.51409 -11.69791,55.23366 -17.58788,82.84188 -1.50739,7.0656 -3.10668,14.11132 -4.63346,21.17275 -3.55015,16.41954 -3.53808,16.56115 -6.66957,31.88135 -1.21825,6.16377 -2.80584,12.24443 -4.15175,18.37934 -1.4779,6.73656 -0.29334,2.9719 -1.99175,7.78323 0,0 1.50533,0.83162 1.50533,0.83162 v 0 c 0.3189,-0.92977 0.6287,-1.86272 0.95671,-2.78932 0.55165,-1.55839 1.2283,-3.07583 1.68218,-4.66545 1.35158,-4.73356 3.17598,-14.18916 4.05098,-18.44196 0.94962,-4.75336 1.94963,-9.49694 2.84887,-14.26009 4.95078,-26.22376 1.67133,-10.64893 7.01562,-39.56357 5.13791,-27.79813 11.09502,-55.43651 17.24089,-83.02633 2.49185,-10.60435 4.87529,-21.23477 7.47554,-31.81306 5.09952,-20.74573 10.97954,-42.8829 16.9875,-63.39184 5.56687,-19.00325 12.13758,-39.20007 18.23055,-58.06856 2.63543,-8.16132 5.29596,-16.31451 7.94394,-24.47176 4.88809,-15.56633 6.76449,-21.04412 10.92174,-35.93688 1.06153,-3.802783 2.13895,-7.604701 3.01183,-11.455164 0.9643,-4.253695 1.78106,-8.458117 1.31853,-12.798101 z" />
    <path
       style="fill:#ffffff;fill-opacity:1"
       id="path15"
       d="m 331.55472,478.89372 c 3.61253,-7.45093 6.98079,-15.07346 9.77389,-22.87269 1.92188,-5.36652 3.39761,-10.88992 5.42421,-16.21778 3.11466,-8.18837 6.66082,-16.20604 9.99124,-24.30907 14.53325,-33.37145 30.69593,-66.00026 47.29792,-98.38073 12.17874,-23.75337 24.1437,-46.36639 36.90187,-69.80066 5.76714,-10.59311 11.66723,-21.11329 17.50085,-31.66993 13.0604,-23.32826 26.47261,-46.46788 40.50845,-69.22482 3.94858,-6.40202 9.15202,-15.65038 14.93443,-21.21225 1.3284,-1.27774 3.13897,-1.93285 4.70845,-2.89927 -1.21066,-0.3459 -2.89166,-2.05619 -3.63197,-1.03772 -1.61202,2.21774 -0.78178,5.44063 -1.49306,8.08847 -1.4026,5.22135 -3.09819,10.36215 -4.83832,15.48091 -5.02721,14.78801 -10.05824,26.86628 -15.31237,41.72557 -3.09109,8.74194 -5.94732,17.56516 -8.92098,26.34774 -9.67102,31.0609 -9.09421,28.1799 -17.78191,60.4261 -6.6458,24.66725 -10.3407,38.98126 -15.49167,63.91261 -5.13336,24.84613 -5.91201,31.80249 -9.67413,56.15894 -3.40386,19.68817 -3.05558,39.6462 -3.20051,59.52905 0,0 0.26903,0.13801 0.26903,0.13801 v 0 c 0.25304,-5.23972 0.40442,-10.48534 0.75912,-15.71916 0.97738,-14.42197 2.67788,-28.78926 3.55477,-43.21921 3.13242,-25.0974 3.45437,-31.19708 8.55804,-56.74446 3.86525,-19.34826 10.10923,-44.95092 15.62539,-63.83708 6.51652,-22.31119 12.22814,-37.49429 19.93328,-59.23188 3.2779,-8.61146 6.53217,-17.23196 9.83369,-25.83439 11.9378,-31.10515 5.06308,-12.92408 16.10093,-41.30248 1.94599,-5.00316 4.01342,-9.96273 5.77656,-15.03321 0.94998,-2.73197 3.22896,-5.59437 2.35498,-8.35158 -0.73475,-2.31798 -4.14244,-2.54786 -6.21366,-3.82179 -2.41635,4.12157 -5.36248,9.17592 -7.72913,13.00454 -2.75255,4.45292 -5.63437,8.82514 -8.38249,13.2808 -14.03603,22.75729 -27.44845,45.89726 -40.50906,69.22587 -5.83367,10.55675 -11.73382,21.07704 -17.50102,31.67025 -12.75835,23.43458 -24.72334,46.04763 -36.90225,69.80132 -16.60236,32.38115 -32.7654,65.01063 -47.29906,98.38274 -5.5048,13.30344 -11.06457,26.58418 -16.53681,39.90104 -1.38163,3.36225 -2.70645,6.74763 -4.08412,10.1115 -1.95794,4.78074 -2.75463,6.42561 -4.451,10.82958 -0.27778,0.72115 -0.51902,1.45585 -0.77854,2.18378 z" />
    <path
       style="fill:#ffffff;fill-opacity:1"
       id="path16"
       d="m 449.85261,49.563722 c 5.39955,-1.437557 11.26926,-2.243433 16.76135,-0.691958 5.41844,1.530672 4.63835,0.797006 5.64301,4.227077 0.29407,1.673019 0.90943,3.320609 0.8822,5.019057 -0.11736,7.318948 -4.78923,15.785022 -7.81824,22.215763 -5.21589,11.073623 -2.62059,5.197279 -7.13086,15.97131 -1.69685,5.228269 -4.23935,11.648979 -1.38204,17.068049 2.09178,3.96717 8.68131,6.5417 11.95891,7.45788 1.51951,0.42474 3.14254,-0.28586 4.71381,-0.42879 1.63968,-0.81146 3.45351,-1.33929 4.91904,-2.4344 3.91683,-2.92684 6.81219,-7.45384 9.12439,-11.61636 3.1729,-5.71196 5.70777,-12.011522 7.73171,-18.20336 1.07788,-3.297547 1.88371,-6.677891 2.82556,-10.016837 1.10978,-6.139706 2.38115,-10.41006 1.79274,-16.589422 -0.17305,-1.817368 -0.57034,-3.658985 -1.35881,-5.305524 -1.67046,-3.488368 -7.12099,-5.239831 -10.31073,-5.134686 -1.52199,0.05017 -2.43668,1.827145 -3.65503,2.740718 -0.89927,1.736549 -2.31051,3.292802 -2.69781,5.209646 -1.24715,6.172417 0.90288,11.190983 5.01689,15.904418 6.29662,7.214066 13.82051,10.626895 21.92755,15.321302 0,0 0.62204,0.239451 0.62204,0.239451 v 0 c -3.51697,-2.118846 -7.25056,-3.913945 -10.55091,-6.356539 -7.28053,-5.38833 -14.42065,-12.614412 -12.50754,-22.541733 0.35542,-1.844299 1.63125,-3.383795 2.44688,-5.075692 1.16606,-0.823577 2.80519,-1.222639 3.49818,-2.470732 0.41599,-0.749202 -1.61193,-2.573625 -0.76325,-2.454914 1.3721,0.191925 2.37372,1.59411 3.08957,2.780312 0.98795,1.637103 1.55157,3.538889 1.86247,5.425552 1.09976,6.673701 -0.12792,9.993921 -1.29748,16.728616 -1.06746,3.258029 -1.98982,6.567228 -3.20237,9.774087 -2.09735,5.546941 -5.31843,12.563014 -8.51529,17.646847 -2.51427,3.99835 -5.72358,8.22275 -9.72586,10.9225 -1.48074,0.99883 -3.25717,1.46691 -4.88575,2.20036 -1.55586,0.0612 -3.24429,-0.44784 -4.66757,0.1836 -0.52833,0.2344 1.3427,1.82391 0.86031,1.50552 -4.74731,-3.13329 -5.25543,-8.04938 -4.50136,-13.28816 0.33829,-2.35019 1.13727,-4.61062 1.7059,-6.915933 4.14728,-10.787535 1.74617,-5.120118 6.90735,-16.066999 3.01414,-6.393016 7.93536,-15.259707 7.6834,-22.600106 -0.0643,-1.87355 -0.90509,-3.638422 -1.35764,-5.457634 -1.99109,-1.69139 -3.78006,-3.654652 -5.97328,-5.074169 -2.80795,-1.817388 -6.70139,-2.208899 -9.89633,-2.342596 -2.72918,-0.114207 -6.47954,0.07468 -9.20928,0.828824 -0.6383,0.176344 -1.17986,0.601707 -1.76978,0.902561 z" />
  </g>
</svg>
